<?xml version="1.0" encoding="UTF-8"?>
<svg xmlns="http://www.w3.org/2000/svg" width="800.000" height="600.000" viewBox="0.0 0.0 800.000 600.000" version="1.1">
  <title>Produce by Acme CAD Converter</title>
  <desc>Produce by Acme CAD Converter</desc>
<polyline points="352.63,392.14 352.81,391.13 353.33,390.24 354.11,389.58 355.08,389.23 356.11,389.23 357.07,389.58 357.86,390.24 358.38,391.13 358.55,392.14 358.38,393.16 357.86,394.05 357.07,394.71 356.11,395.06 355.08,395.06 354.11,394.71 353.33,394.05 352.81,393.16 352.63,392.14" style="fill:none;stroke:black;stroke-width:0.5"/>
<polyline points="354.34,392.14 354.5,391.51 354.96,391.05 355.59,390.88 356.22,391.05 356.68,391.51 356.85,392.14 356.68,392.77 356.22,393.23 355.59,393.4 354.96,393.23 354.5,392.77 354.34,392.14" style="fill:none;stroke:black;stroke-width:0.5"/>
<polyline points="354.04,392.14 354.22,391.42 354.71,390.86 355.41,390.6 356.15,390.69 356.76,391.11 357.1,391.77 357.1,392.51 356.76,393.17 356.15,393.6 355.41,393.69 354.71,393.42 354.22,392.86 354.04,392.14" style="fill:none;stroke:black;stroke-width:0.5"/>
<polyline points="441.45,392.14 441.62,391.13 442.14,390.24 442.93,389.58 443.89,389.23 444.92,389.23 445.89,389.58 446.67,390.24 447.19,391.13 447.37,392.14 447.19,393.16 446.67,394.05 445.89,394.71 444.92,395.06 443.89,395.06 442.93,394.71 442.14,394.05 441.62,393.16 441.45,392.14" style="fill:none;stroke:black;stroke-width:0.5"/>
<polyline points="443.15,392.14 443.32,391.51 443.78,391.05 444.41,390.88 445.04,391.05 445.5,391.51 445.66,392.14 445.5,392.77 445.04,393.23 444.41,393.4 443.78,393.23 443.32,392.77 443.15,392.14" style="fill:none;stroke:black;stroke-width:0.5"/>
<polyline points="442.85,392.14 443.03,391.42 443.52,390.86 444.22,390.6 444.96,390.69 445.57,391.11 445.92,391.77 445.92,392.51 445.57,393.17 444.96,393.6 444.22,393.69 443.52,393.42 443.03,392.86 442.85,392.14" style="fill:none;stroke:black;stroke-width:0.5"/>
<polyline points="441.45,205.64 441.62,204.62 442.14,203.73 442.93,203.07 443.89,202.72 444.92,202.72 445.89,203.07 446.67,203.73 447.19,204.62 447.37,205.64 447.19,206.65 446.67,207.54 445.89,208.2 444.92,208.55 443.89,208.55 442.93,208.2 442.14,207.54 441.62,206.65 441.45,205.64" style="fill:none;stroke:black;stroke-width:0.5"/>
<polyline points="443.15,205.64 443.32,205.01 443.78,204.55 444.41,204.38 445.04,204.55 445.5,205.01 445.66,205.64 445.5,206.27 445.04,206.73 444.41,206.9 443.78,206.73 443.32,206.27 443.15,205.64" style="fill:none;stroke:black;stroke-width:0.5"/>
<polyline points="442.85,205.64 443.03,204.91 443.52,204.36 444.22,204.09 444.96,204.18 445.57,204.61 445.92,205.27 445.92,206.01 445.57,206.67 444.96,207.09 444.22,207.18 443.52,206.92 443.03,206.36 442.85,205.64" style="fill:none;stroke:black;stroke-width:0.5"/>
<polyline points="352.63,205.64 352.81,204.62 353.33,203.73 354.11,203.07 355.08,202.72 356.11,202.72 357.07,203.07 357.86,203.73 358.38,204.62 358.55,205.64 358.38,206.65 357.86,207.54 357.07,208.2 356.11,208.55 355.08,208.55 354.11,208.2 353.33,207.54 352.81,206.65 352.63,205.64" style="fill:none;stroke:black;stroke-width:0.5"/>
<polyline points="354.34,205.64 354.5,205.01 354.96,204.55 355.59,204.38 356.22,204.55 356.68,205.01 356.85,205.64 356.68,206.27 356.22,206.73 355.59,206.9 354.96,206.73 354.5,206.27 354.34,205.64" style="fill:none;stroke:black;stroke-width:0.5"/>
<polyline points="354.04,205.64 354.22,204.91 354.71,204.36 355.41,204.09 356.15,204.18 356.76,204.61 357.1,205.27 357.1,206.01 356.76,206.67 356.15,207.09 355.41,207.18 354.71,206.92 354.22,206.36 354.04,205.64" style="fill:none;stroke:black;stroke-width:0.5"/>
<polyline points="398.22,449.78 401.78,449.78" style="fill:none;stroke:black;stroke-width:0.5"/>
<polyline points="402.52,449.78 397.48,449.78" style="fill:none;stroke:black;stroke-width:0.5"/>
<polyline points="397.19,449.74 402.81,449.74" style="fill:none;stroke:black;stroke-width:0.5"/>
<polyline points="397.19,449.65 402.81,449.65" style="fill:none;stroke:black;stroke-width:0.5"/>
<polyline points="395.71,443.56 404.29,443.56" style="fill:none;stroke:black;stroke-width:0.5"/>
<polyline points="395.56,443.86 404.44,443.86" style="fill:none;stroke:black;stroke-width:0.5"/>
<polyline points="395.56,447.52 404.44,447.52" style="fill:none;stroke:black;stroke-width:0.5"/>
<polyline points="398.22,449.78 400,449.87 401.78,449.78" style="fill:none;stroke:black;stroke-width:0.5"/>
<polyline points="401.78,449.78 401.78,449.78" style="fill:none;stroke:black;stroke-width:0.5"/>
<polyline points="398.22,449.78 398.22,449.78" style="fill:none;stroke:black;stroke-width:0.5"/>
<polyline points="397.48,449.78 397.19,449.74" style="fill:none;stroke:black;stroke-width:0.5"/>
<polyline points="402.52,449.78 402.81,449.74" style="fill:none;stroke:black;stroke-width:0.5"/>
<polyline points="402.81,449.65 402.81,449.74" style="fill:none;stroke:black;stroke-width:0.5"/>
<polyline points="397.19,449.65 397.19,449.74" style="fill:none;stroke:black;stroke-width:0.5"/>
<polyline points="402.81,449.65 404.12,449.39 405.41,449.03" style="fill:none;stroke:black;stroke-width:0.5"/>
<polyline points="394.59,449.03 395.88,449.39 397.19,449.65" style="fill:none;stroke:black;stroke-width:0.5"/>
<polyline points="403.97,442.47 403.97,443.56" style="fill:none;stroke:black;stroke-width:0.5"/>
<polyline points="396.03,442.47 396.03,443.56" style="fill:none;stroke:black;stroke-width:0.5"/>
<polyline points="394.75,447.59 394.3,447.79 394.08,448.24 394.2,448.73 394.59,449.03" style="fill:none;stroke:black;stroke-width:0.5"/>
<polyline points="405.41,449.03 405.8,448.73 405.92,448.24 405.7,447.79 405.25,447.59" style="fill:none;stroke:black;stroke-width:0.5"/>
<polyline points="404.29,443.56 404.44,443.86" style="fill:none;stroke:black;stroke-width:0.5"/>
<polyline points="395.71,443.56 395.56,443.86" style="fill:none;stroke:black;stroke-width:0.5"/>
<polyline points="404.44,447.52 405.25,447.59" style="fill:none;stroke:black;stroke-width:0.5"/>
<polyline points="395.56,447.52 394.75,447.59" style="fill:none;stroke:black;stroke-width:0.5"/>
<polyline points="404.44,443.86 404.44,447.52" style="fill:none;stroke:black;stroke-width:0.5"/>
<polyline points="395.56,443.86 395.56,447.52" style="fill:none;stroke:black;stroke-width:0.5"/>
<polyline points="478.45,150.13 451.81,150.13" style="fill:none;stroke:black;stroke-width:0.5"/>
<polyline points="496.21,167.89 496.03,165.36 495.49,162.89 494.61,160.51 493.39,158.29 491.87,156.26 490.08,154.47 488.05,152.95 485.83,151.73 483.45,150.85 480.98,150.31 478.45,150.13" style="fill:none;stroke:black;stroke-width:0.5"/>
<polyline points="321.55,447.65 348.19,447.65" style="fill:none;stroke:black;stroke-width:0.5"/>
<polyline points="303.79,429.89 303.97,432.42 304.51,434.89 305.39,437.27 306.61,439.49 308.13,441.52 309.92,443.31 311.95,444.83 314.17,446.04 316.55,446.93 319.02,447.47 321.55,447.65" style="fill:none;stroke:black;stroke-width:0.5"/>
<polyline points="451.81,447.65 478.45,447.65" style="fill:none;stroke:black;stroke-width:0.5"/>
<polyline points="446.63,442.47 451.81,447.65" style="fill:none;stroke:black;stroke-width:0.5"/>
<polyline points="353.37,442.47 446.63,442.47" style="fill:none;stroke:black;stroke-width:0.5"/>
<polyline points="348.19,447.65 353.37,442.47" style="fill:none;stroke:black;stroke-width:0.5"/>
<polyline points="303.79,403.24 303.79,429.89" style="fill:none;stroke:black;stroke-width:0.5"/>
<polyline points="308.97,398.06 303.79,403.24" style="fill:none;stroke:black;stroke-width:0.5"/>
<polyline points="308.97,199.72 308.97,398.06" style="fill:none;stroke:black;stroke-width:0.5"/>
<polyline points="303.79,194.54 308.97,199.72" style="fill:none;stroke:black;stroke-width:0.5"/>
<polyline points="303.79,167.89 303.79,194.54" style="fill:none;stroke:black;stroke-width:0.5"/>
<polyline points="321.55,150.13 319.02,150.31 316.55,150.85 314.17,151.73 311.95,152.95 309.92,154.47 308.13,156.26 306.61,158.29 305.39,160.51 304.51,162.89 303.97,165.36 303.79,167.89" style="fill:none;stroke:black;stroke-width:0.5"/>
<polyline points="348.19,150.13 321.55,150.13" style="fill:none;stroke:black;stroke-width:0.5"/>
<polyline points="353.37,155.31 348.19,150.13" style="fill:none;stroke:black;stroke-width:0.5"/>
<polyline points="446.63,155.31 353.37,155.31" style="fill:none;stroke:black;stroke-width:0.5"/>
<polyline points="451.81,150.13 446.63,155.31" style="fill:none;stroke:black;stroke-width:0.5"/>
<polyline points="496.21,194.54 496.21,167.89" style="fill:none;stroke:black;stroke-width:0.5"/>
<polyline points="491.03,199.72 496.21,194.54" style="fill:none;stroke:black;stroke-width:0.5"/>
<polyline points="491.03,398.06 491.03,199.72" style="fill:none;stroke:black;stroke-width:0.5"/>
<polyline points="496.21,403.24 491.03,398.06" style="fill:none;stroke:black;stroke-width:0.5"/>
<polyline points="496.21,429.89 496.21,403.24" style="fill:none;stroke:black;stroke-width:0.5"/>
<polyline points="478.45,447.65 480.98,447.47 483.45,446.93 485.83,446.04 488.05,444.83 490.08,443.31 491.87,441.52 493.39,439.49 494.61,437.27 495.49,434.89 496.03,432.42 496.21,429.89" style="fill:none;stroke:black;stroke-width:0.5"/>
<polyline points="358.7,392.14 358.7,392.09 358.7,392.04 358.7,391.99 358.7,391.94 358.69,391.89 358.69,391.84 358.68,391.78 358.67,391.73 358.67,391.68 358.66,391.62 358.65,391.56 358.64,391.51 358.62,391.45 358.61,391.39 358.59,391.33 358.58,391.27 358.56,391.21 358.54,391.15 358.52,391.09 358.5,391.03 358.47,390.97 358.45,390.9 358.42,390.84 358.39,390.78 358.36,390.72 358.32,390.65 358.29,390.59 358.25,390.53 358.21,390.46 358.17,390.4 358.13,390.34 358.08,390.28 358.03,390.22 357.98,390.15 357.93,390.09 357.88,390.03 357.82,389.97 357.76,389.91 357.7,389.86 357.64,389.8 357.57,389.74 357.5,389.69 357.43,389.64 357.36,389.59 357.29,389.54 357.21,389.49 357.18,389.47 357.14,389.44 357.1,389.42 357.06,389.4 357.02,389.38 356.98,389.36 356.93,389.34 356.89,389.32 356.85,389.3 356.81,389.28 356.76,389.26 356.72,389.25 356.68,389.23 356.63,389.21 356.59,389.2 356.54,389.18 356.5,389.17 356.45,389.16 356.4,389.14 356.36,389.13 356.31,389.12 356.26,389.11 356.22,389.1 356.17,389.09 356.12,389.08 356.08,389.07 356.03,389.07 355.98,389.06 355.93,389.05 355.88,389.05 355.84,389.04 355.79,389.04 355.74,389.04 355.69,389.04 355.64,389.03 355.59,389.03 355.55,389.03 355.5,389.04 355.45,389.04 355.4,389.04 355.35,389.04 355.3,389.05 355.26,389.05 355.21,389.06 355.16,389.07 355.11,389.07 355.07,389.08 355.02,389.09 354.97,389.1 354.92,389.11 354.88,389.12 354.83,389.13 354.78,389.14 354.74,389.16 354.69,389.17 354.65,389.18 354.6,389.2 354.56,389.21 354.51,389.23 354.47,389.25 354.42,389.26 354.38,389.28 354.34,389.3 354.3,389.32 354.25,389.34 354.21,389.36 354.17,389.38 354.13,389.4 354.09,389.42 354.05,389.44 354.01,389.47 353.97,389.49 353.9,389.54 353.82,389.59 353.75,389.64 353.68,389.69 353.62,389.74 353.55,389.8 353.49,389.86 353.43,389.91 353.37,389.97 353.31,390.03 353.26,390.09 353.21,390.15 353.16,390.22 353.11,390.28 353.06,390.34 353.02,390.4 352.98,390.46 352.94,390.53 352.9,390.59 352.86,390.65 352.83,390.72 352.8,390.78 352.77,390.84 352.74,390.9 352.72,390.97 352.69,391.03 352.67,391.09 352.65,391.15 352.63,391.21 352.61,391.27 352.59,391.33 352.58,391.39 352.56,391.45 352.55,391.51 352.54,391.56 352.53,391.62 352.52,391.68 352.51,391.73 352.51,391.78 352.5,391.84 352.5,391.89 352.49,391.94 352.49,391.99 352.49,392.04 352.49,392.09 352.49,392.14 352.49,392.19 352.49,392.24 352.49,392.29 352.49,392.35 352.5,392.4 352.5,392.45 352.51,392.5 352.51,392.56 352.52,392.61 352.53,392.66 352.54,392.72 352.55,392.78 352.56,392.84 352.58,392.89 352.59,392.95 352.61,393.01 352.63,393.07 352.65,393.13 352.67,393.2 352.69,393.26 352.72,393.32 352.74,393.38 352.77,393.44 352.8,393.51 352.83,393.57 352.86,393.63 352.9,393.69 352.94,393.76 352.98,393.82 353.02,393.88 353.06,393.95 353.11,394.01 353.16,394.07 353.21,394.13 353.26,394.19 353.31,394.25 353.37,394.31 353.43,394.37 353.49,394.43 353.55,394.49 353.62,394.54 353.68,394.59 353.75,394.65 353.82,394.7 353.9,394.75 353.97,394.8 354.01,394.82 354.05,394.84 354.09,394.86 354.13,394.89 354.17,394.91 354.21,394.93 354.25,394.95 354.3,394.97 354.34,394.99 354.38,395 354.42,395.02 354.47,395.04 354.51,395.06 354.56,395.07 354.6,395.09 354.65,395.1 354.69,395.12 354.74,395.13 354.78,395.14 354.83,395.15 354.88,395.17 354.92,395.18 354.97,395.19 355.02,395.2 355.07,395.2 355.11,395.21 355.16,395.22 355.21,395.23 355.26,395.23 355.3,395.24 355.35,395.24 355.4,395.24 355.45,395.25 355.5,395.25 355.55,395.25 355.59,395.25 355.64,395.25 355.69,395.25 355.74,395.25 355.79,395.24 355.84,395.24 355.88,395.24 355.93,395.23 355.98,395.23 356.03,395.22 356.08,395.21 356.12,395.2 356.17,395.2 356.22,395.19 356.26,395.18 356.31,395.17 356.36,395.15 356.4,395.14 356.45,395.13 356.5,395.12 356.54,395.1 356.59,395.09 356.63,395.07 356.68,395.06 356.72,395.04 356.76,395.02 356.81,395 356.85,394.99 356.89,394.97 356.93,394.95 356.98,394.93 357.02,394.91 357.06,394.89 357.1,394.86 357.14,394.84 357.18,394.82 357.21,394.8 357.29,394.75 357.36,394.7 357.43,394.65 357.5,394.59 357.57,394.54 357.64,394.49 357.7,394.43 357.76,394.37 357.82,394.31 357.88,394.25 357.93,394.19 357.98,394.13 358.03,394.07 358.08,394.01 358.13,393.95 358.17,393.88 358.21,393.82 358.25,393.76 358.29,393.69 358.32,393.63 358.36,393.57 358.39,393.51 358.42,393.44 358.45,393.38 358.47,393.32 358.5,393.26 358.52,393.2 358.54,393.13 358.56,393.07 358.58,393.01 358.59,392.95 358.61,392.89 358.62,392.84 358.64,392.78 358.65,392.72 358.66,392.66 358.67,392.61 358.67,392.56 358.68,392.5 358.69,392.45 358.69,392.4 358.7,392.35 358.7,392.29 358.7,392.24 358.7,392.19 358.7,392.14" style="fill:none;stroke:black;stroke-width:0.5"/>
<polyline points="358.7,205.64 358.7,205.59 358.7,205.54 358.7,205.49 358.7,205.43 358.69,205.38 358.69,205.33 358.68,205.28 358.67,205.22 358.67,205.17 358.66,205.11 358.65,205.06 358.64,205 358.62,204.94 358.61,204.89 358.59,204.83 358.58,204.77 358.56,204.71 358.54,204.65 358.52,204.58 358.5,204.52 358.47,204.46 358.45,204.4 358.42,204.34 358.39,204.27 358.36,204.21 358.32,204.15 358.29,204.09 358.25,204.02 358.21,203.96 358.17,203.9 358.13,203.83 358.08,203.77 358.03,203.71 357.98,203.65 357.93,203.59 357.88,203.53 357.82,203.47 357.76,203.41 357.7,203.35 357.64,203.29 357.57,203.24 357.5,203.19 357.43,203.13 357.36,203.08 357.29,203.03 357.21,202.98 357.18,202.96 357.14,202.94 357.1,202.92 357.06,202.89 357.02,202.87 356.98,202.85 356.93,202.83 356.89,202.81 356.85,202.79 356.81,202.78 356.76,202.76 356.72,202.74 356.68,202.72 356.63,202.71 356.59,202.69 356.54,202.68 356.5,202.66 356.45,202.65 356.4,202.64 356.36,202.63 356.31,202.61 356.26,202.6 356.22,202.59 356.17,202.58 356.12,202.58 356.08,202.57 356.03,202.56 355.98,202.55 355.93,202.55 355.88,202.54 355.84,202.54 355.79,202.54 355.74,202.53 355.69,202.53 355.64,202.53 355.59,202.53 355.55,202.53 355.5,202.53 355.45,202.53 355.4,202.54 355.35,202.54 355.3,202.54 355.26,202.55 355.21,202.55 355.16,202.56 355.11,202.57 355.07,202.58 355.02,202.58 354.97,202.59 354.92,202.6 354.88,202.61 354.83,202.63 354.78,202.64 354.74,202.65 354.69,202.66 354.65,202.68 354.6,202.69 354.56,202.71 354.51,202.72 354.47,202.74 354.42,202.76 354.38,202.78 354.34,202.79 354.3,202.81 354.25,202.83 354.21,202.85 354.17,202.87 354.13,202.89 354.09,202.92 354.05,202.94 354.01,202.96 353.97,202.98 353.9,203.03 353.82,203.08 353.75,203.13 353.68,203.19 353.62,203.24 353.55,203.29 353.49,203.35 353.43,203.41 353.37,203.47 353.31,203.53 353.26,203.59 353.21,203.65 353.16,203.71 353.11,203.77 353.06,203.83 353.02,203.9 352.98,203.96 352.94,204.02 352.9,204.09 352.86,204.15 352.83,204.21 352.8,204.27 352.77,204.34 352.74,204.4 352.72,204.46 352.69,204.52 352.67,204.58 352.65,204.65 352.63,204.71 352.61,204.77 352.59,204.83 352.58,204.89 352.56,204.94 352.55,205 352.54,205.06 352.53,205.11 352.52,205.17 352.51,205.22 352.51,205.28 352.5,205.33 352.5,205.38 352.49,205.43 352.49,205.49 352.49,205.54 352.49,205.59 352.49,205.64 352.49,205.69 352.49,205.74 352.49,205.79 352.49,205.84 352.5,205.89 352.5,205.94 352.51,206 352.51,206.05 352.52,206.1 352.53,206.16 352.54,206.22 352.55,206.27 352.56,206.33 352.58,206.39 352.59,206.45 352.61,206.51 352.63,206.57 352.65,206.63 352.67,206.69 352.69,206.75 352.72,206.81 352.74,206.88 352.77,206.94 352.8,207 352.83,207.06 352.86,207.13 352.9,207.19 352.94,207.25 352.98,207.31 353.02,207.38 353.06,207.44 353.11,207.5 353.16,207.56 353.21,207.63 353.26,207.69 353.31,207.75 353.37,207.81 353.43,207.87 353.49,207.92 353.55,207.98 353.62,208.04 353.68,208.09 353.75,208.14 353.82,208.19 353.9,208.24 353.97,208.29 354.01,208.31 354.05,208.34 354.09,208.36 354.13,208.38 354.17,208.4 354.21,208.42 354.25,208.44 354.3,208.46 354.34,208.48 354.38,208.5 354.42,208.52 354.47,208.53 354.51,208.55 354.56,208.57 354.6,208.58 354.65,208.6 354.69,208.61 354.74,208.62 354.78,208.64 354.83,208.65 354.88,208.66 354.92,208.67 354.97,208.68 355.02,208.69 355.07,208.7 355.11,208.71 355.16,208.71 355.21,208.72 355.26,208.73 355.3,208.73 355.35,208.74 355.4,208.74 355.45,208.74 355.5,208.74 355.55,208.75 355.59,208.75 355.64,208.75 355.69,208.74 355.74,208.74 355.79,208.74 355.84,208.74 355.88,208.73 355.93,208.73 355.98,208.72 356.03,208.71 356.08,208.71 356.12,208.7 356.17,208.69 356.22,208.68 356.26,208.67 356.31,208.66 356.36,208.65 356.4,208.64 356.45,208.62 356.5,208.61 356.54,208.6 356.59,208.58 356.63,208.57 356.68,208.55 356.72,208.53 356.76,208.52 356.81,208.5 356.85,208.48 356.89,208.46 356.93,208.44 356.98,208.42 357.02,208.4 357.06,208.38 357.1,208.36 357.14,208.34 357.18,208.31 357.21,208.29 357.29,208.24 357.36,208.19 357.43,208.14 357.5,208.09 357.57,208.04 357.64,207.98 357.7,207.92 357.76,207.87 357.82,207.81 357.88,207.75 357.93,207.69 357.98,207.63 358.03,207.56 358.08,207.5 358.13,207.44 358.17,207.38 358.21,207.31 358.25,207.25 358.29,207.19 358.32,207.13 358.36,207.06 358.39,207 358.42,206.94 358.45,206.88 358.47,206.81 358.5,206.75 358.52,206.69 358.54,206.63 358.56,206.57 358.58,206.51 358.59,206.45 358.61,206.39 358.62,206.33 358.64,206.27 358.65,206.22 358.66,206.16 358.67,206.1 358.67,206.05 358.68,206 358.69,205.94 358.69,205.89 358.7,205.84 358.7,205.79 358.7,205.74 358.7,205.69 358.7,205.64" style="fill:none;stroke:black;stroke-width:0.5"/>
<polyline points="447.28,206.83 447.3,206.78 447.31,206.73 447.33,206.69 447.35,206.64 447.37,206.59 447.38,206.54 447.4,206.49 447.41,206.44 447.42,206.38 447.44,206.33 447.45,206.27 447.46,206.22 447.47,206.16 447.48,206.1 447.49,206.04 447.5,205.98 447.5,205.91 447.51,205.85 447.51,205.79 447.51,205.72 447.51,205.65 447.51,205.59 447.51,205.52 447.51,205.45 447.5,205.38 447.5,205.31 447.49,205.24 447.48,205.16 447.47,205.09 447.45,205.02 447.44,204.94 447.42,204.87 447.4,204.79 447.37,204.72 447.35,204.64 447.32,204.56 447.29,204.49 447.26,204.41 447.23,204.33 447.19,204.26 447.15,204.18 447.11,204.1 447.07,204.03 447.02,203.95 446.97,203.88 446.92,203.81 446.89,203.77 446.86,203.73 446.84,203.7 446.81,203.66 446.78,203.63 446.75,203.59 446.72,203.56 446.69,203.53 446.65,203.49 446.62,203.46 446.59,203.43 446.55,203.39 446.52,203.36 446.49,203.33 446.45,203.3 446.41,203.27 446.38,203.24 446.34,203.21 446.3,203.18 446.26,203.15 446.23,203.12 446.19,203.09 446.15,203.06 446.11,203.04 446.07,203.01 446.03,202.99 445.99,202.96 445.94,202.94 445.9,202.91 445.86,202.89 445.82,202.87 445.77,202.85 445.73,202.82 445.69,202.8 445.64,202.78 445.6,202.77 445.55,202.75 445.51,202.73 445.46,202.71 445.42,202.7 445.37,202.68 445.32,202.67 445.28,202.65 445.23,202.64 445.18,202.63 445.14,202.62 445.09,202.61 445.04,202.6 445,202.59 444.95,202.58 444.9,202.57 444.85,202.56 444.81,202.56 444.76,202.55 444.71,202.55 444.66,202.54 444.62,202.54 444.57,202.53 444.52,202.53 444.48,202.53 444.43,202.53 444.38,202.53 444.34,202.53 444.29,202.53 444.24,202.53 444.2,202.54 444.15,202.54 444.11,202.54 444.06,202.55 444.02,202.55 443.97,202.56 443.93,202.57 443.84,202.58 443.75,202.6 443.67,202.62 443.58,202.64 443.5,202.66 443.42,202.69 443.34,202.72 443.26,202.75 443.18,202.78 443.11,202.81 443.03,202.85 442.96,202.89 442.89,202.92 442.82,202.96 442.76,203 442.69,203.04 442.63,203.08 442.57,203.13 442.51,203.17 442.46,203.22 442.4,203.26 442.35,203.31 442.3,203.35 442.25,203.4 442.2,203.45 442.15,203.5 442.11,203.54 442.06,203.59 442.02,203.64 441.98,203.69 441.94,203.74 441.91,203.79 441.87,203.84 441.84,203.88 441.81,203.93 441.78,203.98 441.75,204.03 441.72,204.08 441.69,204.12 441.67,204.17 441.64,204.22 441.62,204.26 441.6,204.31 441.57,204.35 441.55,204.4 441.53,204.45 441.52,204.49 441.5,204.54 441.48,204.59 441.46,204.64 441.45,204.69 441.43,204.74 441.42,204.79 441.4,204.84 441.39,204.89 441.38,204.95 441.36,205 441.35,205.06 441.34,205.12 441.33,205.18 441.32,205.24 441.32,205.3 441.31,205.36 441.3,205.42 441.3,205.49 441.3,205.55 441.3,205.62 441.3,205.69 441.3,205.76 441.3,205.83 441.31,205.9 441.31,205.97 441.32,206.04 441.33,206.11 441.35,206.18 441.36,206.26 441.38,206.33 441.39,206.41 441.42,206.48 441.44,206.56 441.46,206.64 441.49,206.71 441.52,206.79 441.55,206.87 441.59,206.94 441.62,207.02 441.66,207.09 441.7,207.17 441.75,207.25 441.79,207.32 441.84,207.39 441.89,207.47 441.92,207.5 441.95,207.54 441.98,207.58 442,207.61 442.03,207.65 442.06,207.68 442.09,207.71 442.13,207.75 442.16,207.78 442.19,207.82 442.22,207.85 442.26,207.88 442.29,207.91 442.33,207.95 442.36,207.98 442.4,208.01 442.43,208.04 442.47,208.07 442.51,208.1 442.55,208.13 442.59,208.15 442.62,208.18 442.66,208.21 442.7,208.24 442.74,208.26 442.79,208.29 442.83,208.31 442.87,208.34 442.91,208.36 442.95,208.38 443,208.41 443.04,208.43 443.08,208.45 443.13,208.47 443.17,208.49 443.22,208.51 443.26,208.53 443.31,208.54 443.35,208.56 443.4,208.58 443.44,208.59 443.49,208.61 443.53,208.62 443.58,208.63 443.63,208.65 443.67,208.66 443.72,208.67 443.77,208.68 443.82,208.69 443.86,208.7 443.91,208.7 443.96,208.71 444.01,208.72 444.05,208.72 444.1,208.73 444.15,208.73 444.19,208.74 444.24,208.74 444.29,208.74 444.34,208.74 444.38,208.74 444.43,208.74 444.48,208.74 444.52,208.74 444.57,208.74 444.62,208.74 444.66,208.73 444.71,208.73 444.75,208.73 444.8,208.72 444.84,208.72 444.89,208.71 444.97,208.69 445.06,208.68 445.15,208.66 445.23,208.63 445.31,208.61 445.4,208.58 445.48,208.56 445.55,208.53 445.63,208.49 445.71,208.46 445.78,208.43 445.85,208.39 445.92,208.35 445.99,208.31 446.05,208.27 446.12,208.23 446.18,208.19 446.24,208.15 446.3,208.1 446.36,208.06 446.41,208.01 446.46,207.97 446.52,207.92 446.57,207.87 446.61,207.83 446.66,207.78 446.7,207.73 446.75,207.68 446.79,207.63 446.83,207.58 446.87,207.54 446.9,207.49 446.94,207.44 446.97,207.39 447.01,207.34 447.04,207.29 447.07,207.25 447.09,207.2 447.12,207.15 447.15,207.1 447.17,207.06 447.19,207.01 447.22,206.97 447.24,206.92 447.26,206.87 447.28,206.83" style="fill:none;stroke:black;stroke-width:0.5"/>
<polyline points="447.28,393.33 447.3,393.29 447.31,393.24 447.33,393.19 447.35,393.14 447.37,393.09 447.38,393.04 447.4,392.99 447.41,392.94 447.42,392.89 447.44,392.83 447.45,392.78 447.46,392.72 447.47,392.66 447.48,392.6 447.49,392.54 447.5,392.48 447.5,392.42 447.51,392.36 447.51,392.29 447.51,392.23 447.51,392.16 447.51,392.09 447.51,392.02 447.51,391.95 447.5,391.88 447.5,391.81 447.49,391.74 447.48,391.67 447.47,391.6 447.45,391.52 447.44,391.45 447.42,391.37 447.4,391.3 447.37,391.22 447.35,391.14 447.32,391.07 447.29,390.99 447.26,390.91 447.23,390.84 447.19,390.76 447.15,390.68 447.11,390.61 447.07,390.53 447.02,390.46 446.97,390.39 446.92,390.31 446.89,390.28 446.86,390.24 446.84,390.2 446.81,390.17 446.78,390.13 446.75,390.1 446.72,390.07 446.69,390.03 446.65,390 446.62,389.96 446.59,389.93 446.55,389.9 446.52,389.87 446.49,389.83 446.45,389.8 446.41,389.77 446.38,389.74 446.34,389.71 446.3,389.68 446.26,389.65 446.23,389.63 446.19,389.6 446.15,389.57 446.11,389.54 446.07,389.52 446.03,389.49 445.99,389.47 445.94,389.44 445.9,389.42 445.86,389.4 445.82,389.37 445.77,389.35 445.73,389.33 445.69,389.31 445.64,389.29 445.6,389.27 445.55,389.25 445.51,389.24 445.46,389.22 445.42,389.2 445.37,389.19 445.32,389.17 445.28,389.16 445.23,389.15 445.18,389.13 445.14,389.12 445.09,389.11 445.04,389.1 445,389.09 444.95,389.08 444.9,389.08 444.85,389.07 444.81,389.06 444.76,389.06 444.71,389.05 444.66,389.05 444.62,389.04 444.57,389.04 444.52,389.04 444.48,389.04 444.43,389.04 444.38,389.04 444.34,389.04 444.29,389.04 444.24,389.04 444.2,389.04 444.15,389.04 444.11,389.05 444.06,389.05 444.02,389.06 443.97,389.06 443.93,389.07 443.84,389.09 443.75,389.1 443.67,389.12 443.58,389.15 443.5,389.17 443.42,389.2 443.34,389.22 443.26,389.25 443.18,389.29 443.11,389.32 443.03,389.35 442.96,389.39 442.89,389.43 442.82,389.47 442.76,389.51 442.69,389.55 442.63,389.59 442.57,389.63 442.51,389.68 442.46,389.72 442.4,389.77 442.35,389.81 442.3,389.86 442.25,389.91 442.2,389.95 442.15,390 442.11,390.05 442.06,390.1 442.02,390.15 441.98,390.2 441.94,390.24 441.91,390.29 441.87,390.34 441.84,390.39 441.81,390.44 441.78,390.49 441.75,390.53 441.72,390.58 441.69,390.63 441.67,390.67 441.64,390.72 441.62,390.77 441.6,390.81 441.57,390.86 441.55,390.91 441.53,390.95 441.52,391 441.5,391.05 441.48,391.09 441.46,391.14 441.45,391.19 441.43,391.24 441.42,391.29 441.4,391.34 441.39,391.4 441.38,391.45 441.36,391.51 441.35,391.56 441.34,391.62 441.33,391.68 441.32,391.74 441.32,391.8 441.31,391.87 441.3,391.93 441.3,391.99 441.3,392.06 441.3,392.13 441.3,392.19 441.3,392.26 441.3,392.33 441.31,392.4 441.31,392.47 441.32,392.54 441.33,392.62 441.35,392.69 441.36,392.76 441.38,392.84 441.39,392.91 441.42,392.99 441.44,393.06 441.46,393.14 441.49,393.22 441.52,393.29 441.55,393.37 441.59,393.45 441.62,393.52 441.66,393.6 441.7,393.68 441.75,393.75 441.79,393.83 441.84,393.9 441.89,393.97 441.92,394.01 441.95,394.04 441.98,394.08 442,394.12 442.03,394.15 442.06,394.19 442.09,394.22 442.13,394.25 442.16,394.29 442.19,394.32 442.22,394.35 442.26,394.39 442.29,394.42 442.33,394.45 442.36,394.48 442.4,394.51 442.43,394.54 442.47,394.57 442.51,394.6 442.55,394.63 442.59,394.66 442.62,394.69 442.66,394.72 442.7,394.74 442.74,394.77 442.79,394.79 442.83,394.82 442.87,394.84 442.91,394.87 442.95,394.89 443,394.91 443.04,394.93 443.08,394.95 443.13,394.98 443.17,394.99 443.22,395.01 443.26,395.03 443.31,395.05 443.35,395.07 443.4,395.08 443.44,395.1 443.49,395.11 443.53,395.13 443.58,395.14 443.63,395.15 443.67,395.16 443.72,395.17 443.77,395.18 443.82,395.19 443.86,395.2 443.91,395.21 443.96,395.22 444.01,395.22 444.05,395.23 444.1,395.23 444.15,395.24 444.19,395.24 444.24,395.24 444.29,395.25 444.34,395.25 444.38,395.25 444.43,395.25 444.48,395.25 444.52,395.25 444.57,395.25 444.62,395.24 444.66,395.24 444.71,395.24 444.75,395.23 444.8,395.23 444.84,395.22 444.89,395.21 444.97,395.2 445.06,395.18 445.15,395.16 445.23,395.14 445.31,395.12 445.4,395.09 445.48,395.06 445.55,395.03 445.63,395 445.71,394.97 445.78,394.93 445.85,394.89 445.92,394.86 445.99,394.82 446.05,394.78 446.12,394.74 446.18,394.69 446.24,394.65 446.3,394.61 446.36,394.56 446.41,394.52 446.46,394.47 446.52,394.43 446.57,394.38 446.61,394.33 446.66,394.28 446.7,394.24 446.75,394.19 446.79,394.14 446.83,394.09 446.87,394.04 446.9,393.99 446.94,393.94 446.97,393.9 447.01,393.85 447.04,393.8 447.07,393.75 447.09,393.7 447.12,393.66 447.15,393.61 447.17,393.56 447.19,393.52 447.22,393.47 447.24,393.43 447.26,393.38 447.28,393.33" style="fill:none;stroke:black;stroke-width:0.5"/>
<polyline points="353.52,442.47 353.38,442.5 353.27,442.57" style="fill:none;stroke:black;stroke-width:0.5"/>
<polyline points="446.73,442.57 446.48,442.47" style="fill:none;stroke:black;stroke-width:0.5"/>
<polyline points="446.48,155.31 446.62,155.28 446.73,155.21" style="fill:none;stroke:black;stroke-width:0.5"/>
<polyline points="353.27,155.21 353.38,155.28 353.52,155.31" style="fill:none;stroke:black;stroke-width:0.5"/>
<polyline points="491.03,397.92 491.14,398.17" style="fill:none;stroke:black;stroke-width:0.5"/>
<polyline points="491.14,199.61 491.03,199.86" style="fill:none;stroke:black;stroke-width:0.5"/>
</svg>
