<svg version="1.0" xmlns="http://www.w3.org/2000/svg" width="315.000000pt" height="480.000000pt" viewBox="0 0 315.000000 480.000000" preserveAspectRatio="xMidYMid meet">
    <g transform="translate(0.000000,480.000000) scale(0.100000,-0.100000)" fill="#000000">
        <path fill="#03315C" stroke="#F26922" stroke-width="40" d="M260 4789 c-59 -12 -127 -55 -167 -107 -56 -73 -63 -118 -63 -377 l0
        -231 40 -39 40 -39 0 -1586 0 -1586 -41 -39 -40 -40 3 -255 c4 -289 6 -297 85
        -381 76 -82 109 -89 396 -89 l243 0 39 40 39 40 333 0 333 0 0 -29 c0 -17 -5
        -33 -10 -36 -23 -14 -10 -35 23 -34 30 1 31 1 7 9 -17 5 3 8 60 8 57 0 77 -3
        60 -8 -24 -8 -23 -8 8 -9 32 -1 45 20 22 34 -5 3 -10 19 -10 36 l0 29 333 0
        333 0 39 -40 39 -40 243 0 c287 0 320 7 396 89 79 84 81 92 85 381 l3 255 -40
        40 -41 39 0 1586 0 1586 41 39 40 40 -3 250 c-3 229 -5 254 -24 296 -31 66
        -78 114 -142 146 l-57 28 -250 3 -250 3 -45 -45 -44 -46 -736 0 -736 0 -44 45
        -44 45 -226 -1 c-124 -1 -245 -5 -270 -10z"/>
    </g>
</svg>